<?xml version="1.0" standalone="no"?>
<!DOCTYPE svg PUBLIC "-//W3C//DTD SVG 20010904//EN"
 "http://www.w3.org/TR/2001/REC-SVG-20010904/DTD/svg10.dtd">
<svg version="1.0" xmlns="http://www.w3.org/2000/svg"
 width="700.000000pt" height="700.000000pt" viewBox="0 0 700.000000 700.000000"
 preserveAspectRatio="xMidYMid meet">
<metadata>
Created by potrace 1.11, written by Peter Selinger 2001-2013
</metadata>
<g transform="translate(0.000000,700.000000) scale(0.100000,-0.100000)"
fill="#000000" stroke="none">
<path d="M130 3535 l0 -1575 280 0 280 0 0 161 c0 90 4 159 9 157 5 -1 30 -29
56 -61 104 -129 295 -246 465 -287 102 -24 272 -27 371 -6 197 42 385 162 517
329 183 232 262 527 249 935 -8 256 -46 432 -130 599 -131 260 -387 448 -667
493 -284 44 -545 -37 -747 -233 l-73 -70 0 566 0 567 -305 0 -305 0 0 -1575z
m1225 280 c177 -46 297 -181 357 -400 19 -72 22 -104 22 -315 0 -210 -3 -243
-22 -313 -33 -119 -78 -202 -147 -271 -267 -267 -692 -112 -795 289 -46 178
-48 461 -5 627 75 286 328 451 590 383z"/>
<path d="M2520 3535 l0 -1575 299 0 299 0 5 688 c3 437 9 707 16 742 44 223
133 346 300 412 47 18 76 22 176 23 104 0 127 -3 169 -23 114 -52 175 -134
197 -262 7 -41 13 -344 16 -822 l5 -758 300 0 300 0 -5 813 c-3 686 -6 827
-20 907 -30 180 -87 299 -188 402 -54 54 -87 76 -170 116 -146 70 -222 87
-394 87 -162 -1 -234 -16 -362 -75 -109 -51 -162 -88 -260 -184 l-83 -80 0
582 0 582 -300 0 -300 0 0 -1575z"/>
<path d="M4574 4223 c4 -10 210 -523 459 -1141 l452 -1122 274 2 274 3 448
1129 c247 621 449 1132 449 1137 0 5 -138 9 -307 9 l-308 0 -228 -613 c-125
-336 -251 -686 -280 -776 l-52 -165 -63 195 c-34 108 -159 456 -276 775 l-214
579 -317 3 c-300 2 -317 1 -311 -15z"/>
</g>
</svg>
