<?xml version="1.0" standalone="no"?>
<!DOCTYPE svg PUBLIC "-//W3C//DTD SVG 20010904//EN"
 "http://www.w3.org/TR/2001/REC-SVG-20010904/DTD/svg10.dtd">
<svg version="1.0" xmlns="http://www.w3.org/2000/svg"
 width="700.000000pt" height="700.000000pt" viewBox="0 0 700.000000 700.000000"
 preserveAspectRatio="xMidYMid meet">
<metadata>
Created by potrace 1.11, written by Peter Selinger 2001-2013
</metadata>
<g transform="translate(0.000000,700.000000) scale(0.100000,-0.100000)"
fill="#000000" stroke="none">
<path d="M130 3535 l0 -1575 280 0 280 0 2 165 3 164 55 -62 c120 -137 245
-222 408 -278 94 -32 102 -33 252 -33 173 0 232 11 356 69 318 146 524 456
579 872 19 141 19 382 0 526 -59 453 -308 769 -690 879 -70 20 -102 23 -250
22 -159 0 -175 -2 -255 -28 -138 -46 -251 -117 -362 -228 l-48 -47 0 564 0
565 -305 0 -305 0 0 -1575z m1219 284 c176 -40 308 -188 363 -407 20 -76 22
-114 23 -307 0 -196 -3 -230 -23 -309 -44 -173 -141 -304 -272 -369 -62 -31
-70 -32 -185 -32 -120 0 -122 0 -197 37 -98 49 -192 146 -242 250 -85 178
-108 526 -50 752 48 188 183 337 344 380 64 17 177 20 239 5z"/>
<path d="M2520 3535 l0 -1575 300 0 300 0 0 608 c0 607 7 784 35 897 61 242
234 372 483 363 79 -2 107 -8 152 -29 113 -53 169 -131 191 -264 8 -46 13
-326 16 -822 l5 -753 299 0 299 0 0 708 c0 964 -9 1071 -97 1252 -110 226
-329 353 -633 367 -264 12 -479 -71 -667 -256 -40 -39 -75 -71 -78 -71 -3 0
-5 259 -5 575 l0 575 -300 0 -300 0 0 -1575z"/>
<path d="M4574 4223 c4 -10 211 -523 459 -1141 l452 -1122 274 2 273 3 449
1130 c247 622 449 1133 449 1138 0 4 -138 7 -308 7 l-307 0 -223 -598 c-123
-329 -247 -673 -277 -766 -29 -92 -56 -170 -58 -173 -3 -3 -35 87 -71 199 -36
111 -160 457 -275 768 l-208 565 -318 3 c-300 2 -317 1 -311 -15z"/>
</g>
</svg>
