<svg xmlns="http://www.w3.org/2000/svg" xmlns:xlink="http://www.w3.org/1999/xlink" viewBox="0 0 1100 540" width="100%" heigth="540" height="100%"><rect id="bg" x="0" y="0" width="1100" height="540" />

<!-- draw the net -->
<g id="netz" transform="translate(50, 290)">
 <line x1="0" y1="15" x2="1000" y2="15"></line>
 <line x1="0" y1="25" x2="1000" y2="25"></line>
 <line x1="0" y1="35" x2="1000" y2="35"></line>
 <line x1="0" y1="45" x2="1000" y2="45"></line>
 <line x1="0" y1="55" x2="1000" y2="55"></line>
 <line x1="0" y1="65" x2="1000" y2="65"></line>
 <line x1="0" y1="75" x2="1000" y2="75"></line>
 <line x1="0" y1="85" x2="1000" y2="85"></line>
 <line x1="0" y1="95" x2="1000" y2="95"></line>

 <line x1="0" y1="1" x2="0" y2="105"></line>
 <line x1="10" y1="1" x2="10" y2="105"></line>
 <line x1="20" y1="1" x2="20" y2="105"></line>
 <line x1="30" y1="1" x2="30" y2="105"></line>
 <line x1="40" y1="1" x2="40" y2="105"></line>
 <line class="antenna" x1="50" y1="-80" x2="50" y2="105"></line>
 <line class="antennaX" x1="50" y1="-80" x2="50" y2="105"></line>
 <line x1="60" y1="1" x2="60" y2="105"></line>
 <line x1="70" y1="1" x2="70" y2="105"></line>
 <line x1="80" y1="1" x2="80" y2="105"></line>
 <line x1="90" y1="1" x2="90" y2="105"></line>

 <line x1="100" y1="1" x2="100" y2="105"></line>
 <line x1="110" y1="1" x2="110" y2="105"></line>
 <line x1="120" y1="1" x2="120" y2="105"></line>
 <line x1="130" y1="1" x2="130" y2="105"></line>
 <line x1="140" y1="1" x2="140" y2="105"></line>
 <line x1="150" y1="1" x2="150" y2="105"></line>
 <line x1="160" y1="1" x2="160" y2="105"></line>
 <line x1="170" y1="1" x2="170" y2="105"></line>
 <line x1="180" y1="1" x2="180" y2="105"></line>
 <line x1="190" y1="1" x2="190" y2="105"></line>

 <line x1="200" y1="1" x2="200" y2="105"></line>
 <line x1="210" y1="1" x2="210" y2="105"></line>
 <line x1="220" y1="1" x2="220" y2="105"></line>
 <line x1="230" y1="1" x2="230" y2="105"></line>
 <line x1="240" y1="1" x2="240" y2="105"></line>
 <line x1="250" y1="1" x2="250" y2="105"></line>
 <line x1="260" y1="1" x2="260" y2="105"></line>
 <line x1="270" y1="1" x2="270" y2="105"></line>
 <line x1="280" y1="1" x2="280" y2="105"></line>
 <line x1="290" y1="1" x2="290" y2="105"></line>

 <line x1="300" y1="1" x2="300" y2="105"></line>
 <line x1="310" y1="1" x2="310" y2="105"></line>
 <line x1="320" y1="1" x2="320" y2="105"></line>
 <line x1="330" y1="1" x2="330" y2="105"></line>
 <line x1="340" y1="1" x2="340" y2="105"></line>
 <line x1="350" y1="1" x2="350" y2="105"></line>
 <line x1="360" y1="1" x2="360" y2="105"></line>
 <line x1="370" y1="1" x2="370" y2="105"></line>
 <line x1="380" y1="1" x2="380" y2="105"></line>
 <line x1="390" y1="1" x2="390" y2="105"></line>

 <line x1="400" y1="1" x2="400" y2="105"></line>
 <line x1="410" y1="1" x2="410" y2="105"></line>
 <line x1="420" y1="1" x2="420" y2="105"></line>
 <line x1="430" y1="1" x2="430" y2="105"></line>
 <line x1="440" y1="1" x2="440" y2="105"></line>
 <line x1="450" y1="1" x2="450" y2="105"></line>
 <line x1="460" y1="1" x2="460" y2="105"></line>
 <line x1="470" y1="1" x2="470" y2="105"></line>
 <line x1="480" y1="1" x2="480" y2="105"></line>
 <line x1="490" y1="1" x2="490" y2="105"></line>

 <line x1="500" y1="1" x2="500" y2="105"></line>
 <line x1="510" y1="1" x2="510" y2="105"></line>
 <line x1="520" y1="1" x2="520" y2="105"></line>
 <line x1="530" y1="1" x2="530" y2="105"></line>
 <line x1="540" y1="1" x2="540" y2="105"></line>
 <line x1="550" y1="1" x2="550" y2="105"></line>
 <line x1="560" y1="1" x2="560" y2="105"></line>
 <line x1="570" y1="1" x2="570" y2="105"></line>
 <line x1="580" y1="1" x2="580" y2="105"></line>
 <line x1="590" y1="1" x2="590" y2="105"></line>

 <line x1="600" y1="1" x2="600" y2="105"></line>
 <line x1="610" y1="1" x2="610" y2="105"></line>
 <line x1="620" y1="1" x2="620" y2="105"></line>
 <line x1="630" y1="1" x2="630" y2="105"></line>
 <line x1="640" y1="1" x2="640" y2="105"></line>
 <line x1="650" y1="1" x2="650" y2="105"></line>
 <line x1="660" y1="1" x2="660" y2="105"></line>
 <line x1="670" y1="1" x2="670" y2="105"></line>
 <line x1="680" y1="1" x2="680" y2="105"></line>
 <line x1="690" y1="1" x2="690" y2="105"></line>

 <line x1="700" y1="1" x2="700" y2="105"></line>
 <line x1="710" y1="1" x2="710" y2="105"></line>
 <line x1="720" y1="1" x2="720" y2="105"></line>
 <line x1="730" y1="1" x2="730" y2="105"></line>
 <line x1="740" y1="1" x2="740" y2="105"></line>
 <line x1="750" y1="1" x2="750" y2="105"></line>
 <line x1="760" y1="1" x2="760" y2="105"></line>
 <line x1="770" y1="1" x2="770" y2="105"></line>
 <line x1="780" y1="1" x2="780" y2="105"></line>
 <line x1="790" y1="1" x2="790" y2="105"></line>

 <line x1="800" y1="1" x2="800" y2="105"></line>
 <line x1="810" y1="1" x2="810" y2="105"></line>
 <line x1="820" y1="1" x2="820" y2="105"></line>
 <line x1="830" y1="1" x2="830" y2="105"></line>
 <line x1="840" y1="1" x2="840" y2="105"></line>
 <line x1="850" y1="1" x2="850" y2="105"></line>
 <line x1="860" y1="1" x2="860" y2="105"></line>
 <line x1="870" y1="1" x2="870" y2="105"></line>
 <line x1="880" y1="1" x2="880" y2="105"></line>
 <line x1="890" y1="1" x2="890" y2="105"></line>

 <line x1="900" y1="1" x2="900" y2="105"></line>
 <line x1="910" y1="1" x2="910" y2="105"></line>
 <line x1="920" y1="1" x2="920" y2="105"></line>
 <line x1="930" y1="1" x2="930" y2="105"></line>
 <line x1="940" y1="1" x2="940" y2="105"></line>
 <line class="antenna" x1="950" y1="-80" x2="950" y2="105"></line>
 <line class="antennaX" x1="950" y1="-80" x2="950" y2="105"></line>
 <line x1="960" y1="1" x2="960" y2="105"></line>
 <line x1="970" y1="1" x2="970" y2="105"></line>
 <line x1="980" y1="1" x2="980" y2="105"></line>
 <line x1="990" y1="1" x2="990" y2="105"></line>

 <line x1="1000" y1="1" x2="1000" y2="105"></line>

 <line class="top" x1="-1" y1="5" x2="1001" y2="5"></line>
 <line class="top" x1="-1" y1="103" x2="1001" y2="103"></line>

 <line class="antenna_bag" x1="52" y1="3" x2="51" y2="105"></line>
 <line class="antenna_bag" x1="948" y1="3" x2="949" y2="105"></line>
</g>

  <g/>
  <g class="set_other">
    <g class="button">
      <rect x="115" y="310" width="70" height="70" style="fill: #A9A9A9;" rx="15" ry="15"/>
      <rect x="120" y="315" width="60" height="60" style="fill: #D3D3D3;" rx="10" ry="10"/>
      <text dy="0.35em" text-anchor="middle" x="150" y="345">0</text>
    </g>
    <g class="button">
      <rect x="115" y="405" width="70" height="70" style="fill: #A9A9A9;" rx="15" ry="15"/>
      <rect x="120" y="410" width="60" height="60" style="fill: #D3D3D3;" rx="10" ry="10"/>
      <image x="121" y="412" width="58" height="58" xlink:href="images/set_0.png"/>
      <image x="121" y="412" width="58" height="58" xlink:href="images/set_0_hi.png" class="hi"/>
    </g>
    <path class="arrow" d="M650,260 c-245,-210 -440,-250 -500,-40 l-2,-13 m2,13 l9,-9"/>
    <text class="subtitle" dy="0.35em" text-anchor="middle" x="550" y="510"><tspan class="bold">Außenangriff:</tspan> Hoher Ball auf Position 4.</text>
  </g>
  <g class="set_main">
    <g class="button">
      <rect x="204" y="310" width="70" height="70" style="fill: #FFA500;" rx="15" ry="15"/>
      <rect x="209" y="315" width="60" height="60" style="fill: #FFD700;" rx="10" ry="10"/>
      <text dy="0.35em" text-anchor="middle" x="239" y="345">6</text>
    </g>
    <g class="button">
      <rect x="204" y="405" width="70" height="70" style="fill: #FFA500;" rx="15" ry="15"/>
      <rect x="209" y="410" width="60" height="60" style="fill: #FFD700;" rx="10" ry="10"/>
      <image x="210" y="412" width="58" height="58" xlink:href="images/set_6.png"/>
      <image x="210" y="412" width="58" height="58" xlink:href="images/set_6_hi.png" class="hi"/>
    </g>
    <path class="arrow" d="M650,260 c-220,-120 -430,-150 -500,-40 l2,-13 m-2,13 l12,-5"/>
    <text class="subtitle" dy="0.35em" text-anchor="middle" x="550" y="510">Halbschneller Ball auf Position 4.</text>
  </g>
  <g class="set_main">
    <g class="button">
      <rect x="293" y="310" width="70" height="70" style="fill: #FFA500;" rx="15" ry="15"/>
      <rect x="298" y="315" width="60" height="60" style="fill: #FFD700;" rx="10" ry="10"/>
      <text dy="0.35em" text-anchor="middle" x="328" y="345">8</text>
    </g>
    <g class="button">
      <rect x="293" y="405" width="70" height="70" style="fill: #FFA500;" rx="15" ry="15"/>
      <rect x="298" y="410" width="60" height="60" style="fill: #FFD700;" rx="10" ry="10"/>
      <image x="299" y="412" width="58" height="58" xlink:href="images/set_8.png"/>
      <image x="299" y="412" width="58" height="58" xlink:href="images/set_8_hi.png" class="hi"/>
    </g>
    <path class="arrow" d="M650,260 c-160,-138 -285,-140 -327,-40 l0,-12 m0,12 l9,-8"/>
    <text class="subtitle" dy="0.35em" text-anchor="middle" x="550" y="510">Halbschneller Ball außerhalb des <tspan class="bold">4ers</tspan>.</text>
  </g>
  <g class="set_other">
    <g class="button">
      <rect x="382" y="310" width="70" height="70" style="fill: #A9A9A9;" rx="15" ry="15"/>
      <rect x="387" y="315" width="60" height="60" style="fill: #D3D3D3;" rx="10" ry="10"/>
      <text dy="0.35em" text-anchor="middle" x="417" y="345">4</text>
    </g>
    <g class="button">
      <rect x="382" y="405" width="70" height="70" style="fill: #A9A9A9;" rx="15" ry="15"/>
      <rect x="387" y="410" width="60" height="60" style="fill: #D3D3D3;" rx="10" ry="10"/>
      <image x="388" y="412" width="58" height="58" xlink:href="images/set_4.png"/>
      <image x="388" y="412" width="58" height="58" xlink:href="images/set_4_hi.png" class="hi"/>
    </g>
    <path class="arrow" d="M650,260 l-230,-40 l7,7 m-7,-7 l10,-3.5"/>
    <text class="subtitle" dy="0.35em" text-anchor="middle" x="550" y="510"><tspan class="bold">Kurzschuss:</tspan> Schneller Ball vor der Aufspielerin (ca. 3m weg).</text>
  </g>
  <g class="set_other">
    <g class="button">
      <rect x="471" y="310" width="70" height="70" style="fill: #A9A9A9;" rx="15" ry="15"/>
      <rect x="476" y="315" width="60" height="60" style="fill: #D3D3D3;" rx="10" ry="10"/>
      <text dy="0.35em" text-anchor="middle" x="506" y="345">5v</text>
    </g>
    <g class="button">
      <rect x="471" y="405" width="70" height="70" style="fill: #A9A9A9;" rx="15" ry="15"/>
      <rect x="476" y="410" width="60" height="60" style="fill: #D3D3D3;" rx="10" ry="10"/>
      <image x="477" y="412" width="58" height="58" xlink:href="images/set_5v.png"/>
      <image x="477" y="412" width="58" height="58" xlink:href="images/set_5v_hi.png" class="hi"/>
    </g>
    <path class="arrow" d="M650,260 c-68,-138 -120,-140 -140,-40 l-2,-13 m2,13 l7.5,-11"/>
    <text class="subtitle" dy="0.35em" text-anchor="middle" x="550" y="510">Halbschneller Ball zwischen <tspan class="bold">4er</tspan> und <tspan class="bold">1er</tspan>.</text>
  </g>
  <g class="set_main">
    <g class="button">
      <rect x="560" y="310" width="70" height="70" style="fill: #FFA500;" rx="15" ry="15"/>
      <rect x="565" y="315" width="60" height="60" style="fill: #FFD700;" rx="10" ry="10"/>
      <text dy="0.35em" text-anchor="middle" x="595" y="345">1</text>
    </g>
    <g class="button">
      <rect x="560" y="405" width="70" height="70" style="fill: #FFA500;" rx="15" ry="15"/>
      <rect x="565" y="410" width="60" height="60" style="fill: #FFD700;" rx="10" ry="10"/>
      <image x="566" y="412" width="58" height="58" xlink:href="images/set_1.png"/>
      <image x="566" y="412" width="58" height="58" xlink:href="images/set_1_hi.png" class="hi"/>
    </g>
    <path class="arrow" d="M650,260 l-50,-40 l3,10 m-3,-10 l10,-1"/>
    <text class="subtitle" dy="0.35em" text-anchor="middle" x="550" y="510"><tspan class="bold">Aufsteiger:</tspan> Schneller Ball vor der Aufspielerin.</text>
  </g>
  <g class="set_main">
    <g class="button">
      <rect x="649" y="310" width="70" height="70" style="fill: #FFA500;" rx="15" ry="15"/>
      <rect x="654" y="315" width="60" height="60" style="fill: #FFD700;" rx="10" ry="10"/>
      <text dy="0.35em" text-anchor="middle" x="684" y="345">3</text>
    </g>
    <g class="button">
      <rect x="649" y="405" width="70" height="70" style="fill: #FFA500;" rx="15" ry="15"/>
      <rect x="654" y="410" width="60" height="60" style="fill: #FFD700;" rx="10" ry="10"/>
      <image x="655" y="412" width="58" height="58" xlink:href="images/set_3.png"/>
      <image x="655" y="412" width="58" height="58" xlink:href="images/set_3_hi.png" class="hi"/>
    </g>
    <path class="arrow" d="M650,260 l50,-40 l-3,10 m3,-10 l-10,-1"/>
    <text class="subtitle" dy="0.35em" text-anchor="middle" x="550" y="510"><tspan class="bold">Aufsteiger hinten:</tspan> Schneller Ball hinter der Aufspielerin.</text>
  </g>
  <g class="set_other">
    <g class="button">
      <rect x="738" y="310" width="70" height="70" style="fill: #A9A9A9;" rx="15" ry="15"/>
      <rect x="743" y="315" width="60" height="60" style="fill: #D3D3D3;" rx="10" ry="10"/>
      <text dy="0.35em" text-anchor="middle" x="773" y="345">5h</text>
    </g>
    <g class="button">
      <rect x="738" y="405" width="70" height="70" style="fill: #A9A9A9;" rx="15" ry="15"/>
      <rect x="743" y="410" width="60" height="60" style="fill: #D3D3D3;" rx="10" ry="10"/>
      <image x="744" y="412" width="58" height="58" xlink:href="images/set_5h.png"/>
      <image x="744" y="412" width="58" height="58" xlink:href="images/set_5h_hi.png" class="hi"/>
    </g>
    <path class="arrow" d="M650,260 c68,-138 120,-140 140,-40 l2,-13 m-2,13 l-7.5,-11"/>
    <text class="subtitle" dy="0.35em" text-anchor="middle" x="550" y="510">Halbschneller Ball hinter der Aufspielerin.</text>
  </g>
  <g class="set_main">
    <g class="button">
      <rect x="827" y="310" width="70" height="70" style="fill: #FFA500;" rx="15" ry="15"/>
      <rect x="832" y="315" width="60" height="60" style="fill: #FFD700;" rx="10" ry="10"/>
      <text dy="0.35em" text-anchor="middle" x="862" y="345">E</text>
    </g>
    <g class="button">
      <rect x="827" y="405" width="70" height="70" style="fill: #FFA500;" rx="15" ry="15"/>
      <rect x="832" y="410" width="60" height="60" style="fill: #FFD700;" rx="10" ry="10"/>
      <image x="833" y="412" width="58" height="58" xlink:href="images/set_E.png"/>
      <image x="833" y="412" width="58" height="58" xlink:href="images/set_E_hi.png" class="hi"/>
    </g>
    <path class="arrow" d="M650,260 c168,-138 220,-140 240,-40 l2,-13 m-2,13 l-7.5,-11"/>
    <text class="subtitle" dy="0.35em" text-anchor="middle" x="550" y="510"><tspan class="bold">Einbeiner/Flieger:</tspan> Halbschneller Ball hinter der Aufspielerin.</text>
  </g>
  <g class="set_main">
    <g class="button">
      <rect x="916" y="310" width="70" height="70" style="fill: #FFA500;" rx="15" ry="15"/>
      <rect x="921" y="315" width="60" height="60" style="fill: #FFD700;" rx="10" ry="10"/>
      <text dy="0.35em" text-anchor="middle" x="951" y="345">2</text>
    </g>
    <g class="button">
      <rect x="916" y="405" width="70" height="70" style="fill: #FFA500;" rx="15" ry="15"/>
      <rect x="921" y="410" width="60" height="60" style="fill: #FFD700;" rx="10" ry="10"/>
      <image x="922" y="412" width="58" height="58" xlink:href="images/set_2.png"/>
      <image x="922" y="412" width="58" height="58" xlink:href="images/set_2_hi.png" class="hi"/>
    </g>
    <path class="arrow" d="M650,260 c155,-210 260,-250 290,-40 l-8,-11 m8,11 l4,-13"/>
    <text class="subtitle" dy="0.35em" text-anchor="middle" x="550" y="510"><tspan class="bold">Diagonalangriff:</tspan> Hoher Ball über Position 2.</text>
  </g>
  <ellipse cx="650" cy="260" rx="20" ry="20" style="fill: #F2F2F2; stroke: none;"/>
</svg>
